<svg xmlns="http://www.w3.org/2000/svg" viewBox="0 0 64 64" role="img" aria-label="Mijoté Maison">
  <rect width="64" height="64" rx="18" fill="#fff1dc"/>
  <path d="M16 31h32v8c0 8-6.4 14-16 14s-16-6-16-14v-8Z" fill="#d84a2b"/>
  <path d="M13 33h38" stroke="#7a2e1f" stroke-width="4" stroke-linecap="round"/>
  <path d="M19 26c2.5-5 7-7 13-7s10.5 2 13 7" fill="none" stroke="#2f7d46" stroke-width="4" stroke-linecap="round"/>
  <path d="M25 15c-2-3-1-6 2-8M33 15c-2-3-1-6 2-8M41 16c-1.6-2.7-.8-5.5 2-7" fill="none" stroke="#f59e0b" stroke-width="4" stroke-linecap="round"/>
  <circle cx="27" cy="38" r="2.4" fill="#fff1dc"/>
  <circle cx="37" cy="38" r="2.4" fill="#fff1dc"/>
  <path d="M27 44c3 2.2 7 2.2 10 0" fill="none" stroke="#fff1dc" stroke-width="3" stroke-linecap="round"/>
</svg>
