<svg xmlns="http://www.w3.org/2000/svg" viewBox="0 0 128 128" role="img" aria-label="Logo Mijoté et Protégé">
  <defs>
    <linearGradient id="pot" x1="18" x2="102" y1="52" y2="108" gradientUnits="userSpaceOnUse">
      <stop offset="0" stop-color="#f97316"/>
      <stop offset="1" stop-color="#b91c1c"/>
    </linearGradient>
    <linearGradient id="shield" x1="70" x2="108" y1="56" y2="104" gradientUnits="userSpaceOnUse">
      <stop offset="0" stop-color="#166534"/>
      <stop offset="1" stop-color="#22c55e"/>
    </linearGradient>
  </defs>
  <rect width="128" height="128" rx="30" fill="#fff7ed"/>
  <path d="M38 22c-7 8-2 13 3 18 5 5 8 10 1 18" fill="none" stroke="#fb923c" stroke-width="7" stroke-linecap="round"/>
  <path d="M62 18c-7 9-1 15 4 20 5 5 7 10 0 18" fill="none" stroke="#84cc16" stroke-width="7" stroke-linecap="round"/>
  <path d="M85 24c-6 7-2 12 3 16 5 5 7 10 1 16" fill="none" stroke="#f59e0b" stroke-width="7" stroke-linecap="round"/>
  <path d="M22 58h75c8 0 14 6 14 14v11c0 17-14 31-31 31H39c-17 0-31-14-31-31V72c0-8 6-14 14-14Z" fill="url(#pot)"/>
  <path d="M18 70h-7c-5 0-9 4-9 9s4 9 9 9h7" fill="none" stroke="#7c2d12" stroke-width="8" stroke-linecap="round"/>
  <path d="M105 70h12c5 0 9 4 9 9s-4 9-9 9h-12" fill="none" stroke="#7c2d12" stroke-width="8" stroke-linecap="round"/>
  <path d="M29 58c3-10 15-17 31-17s28 7 31 17" fill="#fed7aa"/>
  <path d="M77 64 99 56l22 8v16c0 17-9 29-22 35-13-6-22-18-22-35V64Z" fill="url(#shield)" stroke="#f0fdf4" stroke-width="4" stroke-linejoin="round"/>
  <rect x="90" y="78" width="18" height="17" rx="4" fill="#f0fdf4"/>
  <path d="M94 78v-5a5 5 0 0 1 10 0v5" fill="none" stroke="#f0fdf4" stroke-width="5" stroke-linecap="round"/>
  <circle cx="99" cy="87" r="2.5" fill="#166534"/>
</svg>
