<svg xmlns="http://www.w3.org/2000/svg" viewBox="0 0 128 128" role="img" aria-label="Logo Mijoté Maison">
  <defs>
    <linearGradient id="bg" x1="14" x2="114" y1="14" y2="116" gradientUnits="userSpaceOnUse">
      <stop offset="0" stop-color="#fff7ed"/>
      <stop offset="1" stop-color="#fed7aa"/>
    </linearGradient>
    <linearGradient id="pot" x1="18" x2="104" y1="50" y2="112" gradientUnits="userSpaceOnUse">
      <stop offset="0" stop-color="#f97316"/>
      <stop offset="1" stop-color="#d73b1f"/>
    </linearGradient>
  </defs>
  <rect width="128" height="128" rx="30" fill="url(#bg)"/>
  <path d="M38 22c-7 8-2 13 3 18 5 5 8 10 1 18" fill="none" stroke="#fb923c" stroke-width="7" stroke-linecap="round"/>
  <path d="M62 18c-7 9-1 15 4 20 5 5 7 10 0 18" fill="none" stroke="#65a30d" stroke-width="7" stroke-linecap="round"/>
  <path d="M85 24c-6 7-2 12 3 16 5 5 7 10 1 16" fill="none" stroke="#f59e0b" stroke-width="7" stroke-linecap="round"/>
  <path d="M22 59h84c8 0 14 6 14 14v10c0 18-15 33-33 33H41C23 116 8 101 8 83V73c0-8 6-14 14-14Z" fill="url(#pot)"/>
  <path d="M18 72h-7c-5 0-9 4-9 9s4 9 9 9h7" fill="none" stroke="#7c2d12" stroke-width="8" stroke-linecap="round"/>
  <path d="M110 72h7c5 0 9 4 9 9s-4 9-9 9h-7" fill="none" stroke="#7c2d12" stroke-width="8" stroke-linecap="round"/>
  <path d="M29 59c4-11 17-18 35-18s31 7 35 18" fill="#ffedd5"/>
  <path d="M45 83c8 13 29 13 38 0" fill="none" stroke="#fff7ed" stroke-width="7" stroke-linecap="round"/>
  <circle cx="48" cy="75" r="4" fill="#fff7ed"/>
  <circle cx="80" cy="75" r="4" fill="#fff7ed"/>
  <path d="M94 42c7-8 18-4 18 6 0 12-18 20-18 20S76 60 76 48c0-10 12-14 18-6Z" fill="#65a30d"/>
</svg>
